<?xml version="1.0" standalone="no"?>
<!DOCTYPE svg PUBLIC "-//W3C//DTD SVG 20010904//EN"
 "http://www.w3.org/TR/2001/REC-SVG-20010904/DTD/svg10.dtd">
<svg version="1.0" xmlns="http://www.w3.org/2000/svg"
 width="500.000000pt" height="500.000000pt" viewBox="0 0 500.000000 500.000000"
 preserveAspectRatio="xMidYMid meet">

<g transform="translate(0.000000,500.000000) scale(0.100000,-0.100000)"
fill="#000000" stroke="none">
<path d="M2497 3696 c-25 -17 -34 -20 -30 -9 13 33 -67 -9 -116 -61 -14 -14
-30 -26 -36 -26 -6 0 -22 -18 -34 -41 -19 -33 -22 -50 -17 -87 3 -26 10 -77
15 -114 4 -37 13 -73 19 -80 5 -7 15 -33 21 -58 l10 -45 -3 63 c-4 54 -2 64
16 73 17 9 18 17 13 64 -7 49 -5 54 17 69 17 11 48 16 104 16 43 0 105 2 136
3 74 3 97 -18 103 -89 2 -28 11 -53 20 -60 9 -7 15 -28 16 -55 l0 -44 15 45
c8 25 14 72 13 105 -1 33 2 67 5 76 4 9 0 21 -9 29 -8 7 -15 20 -15 30 0 9
-24 35 -52 56 -54 40 -75 87 -47 105 8 5 0 13 -26 23 -50 21 -52 21 -76 -16
l-21 -33 5 43 c3 23 2 42 -3 42 -4 0 -23 -11 -43 -24z m30 -162 c24 -9 48 -24
55 -32 11 -13 10 -15 -4 -9 -9 3 -35 11 -56 17 -41 10 -72 45 -72 77 0 14 5
11 18 -10 9 -15 35 -34 59 -43z m96 34 c14 -13 36 -31 51 -41 14 -10 26 -25
26 -34 0 -14 -2 -14 -20 2 -11 10 -20 15 -20 11 0 -7 -14 4 -51 37 -17 15 -27
47 -14 47 2 0 15 -10 28 -22z m-226 -57 c21 -6 61 -14 88 -19 50 -10 49 -10
-30 -11 -100 -1 -125 12 -125 67 l1 37 14 -32 c10 -24 23 -34 52 -42z"/>
<path d="M2335 3043 c4 -112 11 -164 24 -172 4 -3 13 -16 20 -29 39 -74 186
-100 269 -48 24 15 48 38 54 51 6 14 15 25 20 25 4 0 8 15 8 33 0 19 3 37 8
41 9 9 10 186 1 180 -4 -2 -10 -20 -14 -40 -4 -24 -13 -38 -26 -41 -10 -3 -19
-12 -19 -19 0 -18 1 -18 -46 5 -53 26 -136 25 -188 0 -47 -23 -46 -23 -46 -5
0 7 -8 16 -18 18 -13 4 -23 21 -31 52 -6 25 -13 46 -16 46 -2 0 -2 -44 0 -97z
m248 -53 c12 -11 -33 -17 -68 -9 l-30 6 25 11 c25 10 57 7 73 -8z"/>
<path d="M2216 2578 c-63 -56 -36 -122 65 -159 43 -16 59 -27 57 -38 -5 -25
-54 -26 -75 -2 -11 13 -29 21 -50 21 -33 0 -33 0 -33 -50 0 -49 1 -50 30 -50
18 0 33 6 36 15 5 13 9 13 34 0 49 -25 107 -19 141 14 55 55 27 114 -71 146
-55 18 -79 40 -63 56 18 18 67 6 78 -18 7 -17 18 -23 42 -23 33 0 33 0 33 50
l0 50 -35 0 c-25 0 -35 -4 -35 -16 0 -13 -5 -12 -26 5 -36 29 -95 28 -128 -1z"/>
<path d="M1490 2571 c0 -11 5 -23 10 -26 6 -3 10 -48 10 -101 0 -56 -4 -94
-10 -94 -5 0 -10 -11 -10 -25 0 -24 2 -25 65 -25 63 0 65 1 65 25 0 16 -6 25
-15 25 -10 0 -15 10 -15 33 0 41 7 49 31 36 13 -7 19 -21 19 -44 0 -46 29 -75
74 -75 37 0 66 28 66 62 0 19 -15 24 -25 8 -11 -18 -25 -10 -25 15 0 14 -10
32 -24 42 l-24 18 25 21 c19 15 26 29 25 55 -1 56 -27 69 -143 69 -91 0 -99
-2 -99 -19z m150 -31 c15 0 22 -40 10 -55 -7 -8 -23 -15 -36 -15 -21 0 -24 5
-24 33 0 38 8 50 28 42 7 -3 17 -5 22 -5z"/>
<path d="M2470 2540 c0 -49 1 -50 30 -50 25 0 30 4 30 25 0 18 5 25 20 25 19
0 20 -7 20 -95 0 -78 -3 -95 -15 -95 -9 0 -15 -9 -15 -25 0 -24 2 -25 75 -25
72 0 75 1 75 24 0 15 -7 26 -20 29 -18 5 -20 14 -20 96 0 90 0 91 25 91 20 0
25 -5 25 -25 0 -20 5 -25 25 -25 23 0 25 3 25 50 l0 50 -140 0 -140 0 0 -50z"/>
<path d="M2760 2570 c0 -11 4 -20 10 -20 13 0 100 -150 100 -173 0 -10 -7 -20
-15 -23 -8 -4 -15 -17 -15 -30 0 -23 3 -24 65 -24 63 0 65 1 65 25 0 14 -4 25
-10 25 -34 0 37 182 76 197 8 3 14 14 14 24 0 16 -8 19 -55 19 -48 0 -55 -3
-55 -19 0 -11 5 -21 11 -23 11 -4 -18 -78 -31 -78 -13 0 -42 74 -31 78 6 2 11
12 11 23 0 17 -8 19 -70 19 -63 0 -70 -2 -70 -20z"/>
<path d="M3060 2565 c0 -14 5 -25 10 -25 6 0 10 -38 10 -95 0 -57 -4 -95 -10
-95 -5 0 -10 -11 -10 -25 l0 -25 115 0 115 0 0 55 c0 54 0 55 -29 55 -25 0
-30 -4 -33 -27 -3 -24 -8 -28 -33 -28 l-30 0 -3 89 c-2 73 0 91 13 98 8 5 15
18 15 28 0 18 -7 20 -65 20 -63 0 -65 -1 -65 -25z"/>
<path d="M3320 2565 c0 -16 6 -25 15 -25 12 0 15 -17 15 -90 0 -71 -3 -92 -15
-96 -8 -4 -15 -17 -15 -30 l0 -24 125 0 125 0 0 45 c0 45 0 45 -35 45 -28 0
-35 -4 -35 -20 0 -16 -7 -20 -35 -20 -34 0 -35 1 -35 40 l0 40 40 0 c36 0 40
3 40 25 0 23 -4 25 -40 25 -38 0 -40 2 -40 30 0 28 3 30 35 30 24 0 35 -5 35
-15 0 -10 11 -15 35 -15 34 0 35 1 35 40 l0 40 -125 0 -125 0 0 -25z"/>
<path d="M1920 2405 c0 -24 3 -25 55 -25 52 0 55 1 55 25 0 24 -3 25 -55 25
-52 0 -55 -1 -55 -25z"/>
<path d="M2350 2106 c0 -8 5 -18 10 -21 14 -8 13 -98 -1 -112 -19 -19 0 -33
42 -33 32 0 39 3 39 20 0 11 -4 20 -10 20 -5 0 -10 10 -10 21 0 18 3 19 14 9
8 -6 16 -21 18 -32 4 -29 33 -46 56 -32 21 13 30 56 10 49 -7 -3 -18 6 -24 19
-9 19 -8 27 4 40 13 13 13 17 -2 40 -15 24 -23 26 -81 26 -50 0 -65 -3 -65
-14z m98 -39 c2 -10 -3 -17 -12 -17 -10 0 -16 9 -16 21 0 24 23 21 28 -4z"/>
<path d="M2560 2105 c0 -8 5 -15 11 -15 12 0 8 -61 -7 -122 l-6 -28 66 0 c53
0 70 4 86 20 24 24 24 30 6 56 -10 13 -11 23 -4 31 16 19 1 60 -24 67 -13 3
-47 6 -75 6 -41 0 -53 -4 -53 -15z m100 -40 c0 -8 -7 -15 -15 -15 -8 0 -15 7
-15 15 0 8 7 15 15 15 8 0 15 -7 15 -15z m5 -65 c0 -8 -8 -16 -17 -18 -13 -2
-18 3 -18 18 0 15 5 20 18 18 9 -2 17 -10 17 -18z"/>
<path d="M2164 2096 c-3 -7 -4 -17 -3 -22 5 -19 -13 -114 -22 -114 -5 0 -9
-10 -9 -21 0 -17 4 -20 23 -15 12 3 30 6 40 6 9 0 17 7 17 15 0 8 -4 15 -10
15 -5 0 -10 5 -10 10 0 6 15 10 33 9 17 0 26 -3 20 -6 -7 -2 -13 -14 -13 -25
0 -18 4 -20 31 -14 17 3 40 6 50 6 11 0 19 7 19 15 0 8 -4 15 -9 15 -5 0 -22
31 -37 70 l-29 70 -43 0 c-27 0 -45 -5 -48 -14z m66 -78 c0 -5 -7 -8 -15 -8
-15 0 -20 21 -8 33 7 7 23 -11 23 -25z"/>
<path d="M2767 2046 c4 -41 2 -66 -6 -70 -6 -4 -11 -16 -11 -27 0 -16 7 -19
44 -19 24 0 58 -3 75 -6 29 -6 31 -5 31 25 0 24 -4 31 -20 31 -11 0 -20 -4
-20 -10 0 -5 -9 -10 -20 -10 -13 0 -20 7 -20 20 0 15 7 20 25 20 18 0 25 5 25
20 0 13 -7 20 -20 20 -11 0 -20 7 -20 15 0 8 9 15 20 15 11 0 20 -7 20 -15 0
-8 8 -15 19 -15 13 0 20 9 23 29 4 28 3 29 -46 35 -108 13 -104 15 -99 -58z"/>
<path d="M2953 2024 c-1 -40 -7 -70 -14 -75 -24 -14 -1 -39 36 -39 36 0 36 0
29 35 -4 23 -2 35 5 35 6 0 11 -13 11 -30 0 -57 78 -79 89 -25 2 13 -1 16 -13
12 -11 -5 -16 -1 -16 13 0 10 -5 22 -11 25 -6 5 -3 13 10 22 49 33 12 77 -74
88 l-50 7 -2 -68z m85 3 c2 -10 -3 -17 -12 -17 -10 0 -16 9 -16 21 0 24 23 21
28 -4z"/>
<path d="M1948 2073 c-29 -4 -40 -37 -16 -45 7 -3 12 -29 12 -71 l1 -67 45 6
c25 4 60 12 78 20 26 11 32 18 32 44 0 18 -6 33 -15 36 -10 4 -13 14 -9 30 12
48 -27 62 -128 47z m72 -48 c0 -8 -7 -15 -15 -15 -8 0 -15 7 -15 15 0 8 7 15
15 15 8 0 15 -7 15 -15z m20 -66 c0 -25 -33 -22 -38 4 -2 12 3 17 17 17 15 0
21 -6 21 -21z"/>
<path d="M1776 1541 c-41 -45 2 -107 58 -85 26 10 18 23 -11 21 -22 -2 -29 3
-31 22 -5 30 13 50 30 33 17 -17 28 -15 28 6 0 25 -52 27 -74 3z"/>
<path d="M1874 1513 c6 -47 18 -63 47 -63 24 0 36 19 42 68 4 35 2 42 -12 42
-14 0 -18 -8 -17 -42 1 -32 -3 -43 -14 -43 -11 0 -15 11 -14 43 1 35 -2 42
-19 42 -18 0 -19 -5 -13 -47z"/>
<path d="M1980 1540 c0 -11 5 -20 10 -20 6 0 10 5 10 10 0 6 5 10 10 10 6 0
10 -16 10 -35 0 -19 -4 -35 -10 -35 -5 0 -10 -4 -10 -10 0 -5 14 -10 30 -10
17 0 30 5 30 10 0 6 -4 10 -10 10 -5 0 -10 16 -10 35 0 19 5 35 10 35 6 0 10
-4 10 -10 0 -5 5 -10 10 -10 6 0 10 9 10 20 0 17 -7 20 -50 20 -43 0 -50 -3
-50 -20z"/>
<path d="M2106 1553 c-14 -15 -4 -44 19 -55 28 -12 33 -28 10 -28 -8 0 -15 5
-15 10 0 6 -7 10 -15 10 -8 0 -15 -8 -15 -18 0 -14 9 -18 39 -19 65 -3 80 43
20 62 -23 7 -25 25 -4 25 8 0 15 -4 15 -10 0 -5 7 -10 15 -10 8 0 15 8 15 18
0 14 -9 18 -39 19 -21 1 -42 -1 -45 -4z"/>
<path d="M2906 1553 c-17 -17 -4 -45 25 -55 22 -7 27 -14 20 -21 -8 -8 -14 -8
-23 1 -17 17 -28 15 -28 -7 0 -15 7 -18 38 -16 52 3 52 3 52 24 0 11 -12 23
-30 31 -16 7 -30 16 -30 21 0 12 27 11 35 -1 10 -16 25 -11 25 8 0 14 -9 18
-39 19 -21 1 -42 -1 -45 -4z"/>
<path d="M3015 1505 c0 -46 3 -55 18 -55 14 0 16 5 11 25 -5 21 -3 25 16 25
19 0 21 -4 16 -25 -5 -20 -3 -25 11 -25 15 0 18 9 18 55 0 46 -3 55 -18 55
-14 0 -16 -5 -11 -25 5 -21 3 -25 -16 -25 -19 0 -21 4 -16 25 5 20 3 25 -11
25 -15 0 -18 -9 -18 -55z"/>
<path d="M3153 1548 c2 -7 -2 -30 -9 -52 -17 -48 -18 -46 7 -46 15 0 19 5 15
15 -4 10 1 15 14 15 13 0 18 -5 14 -15 -5 -11 1 -15 21 -15 17 0 25 4 21 13
-2 6 -10 31 -17 55 -10 37 -15 42 -41 42 -19 0 -28 -4 -25 -12z m37 -33 c0 -8
-4 -15 -10 -15 -5 0 -10 7 -10 15 0 8 5 15 10 15 6 0 10 -7 10 -15z"/>
<path d="M3252 1553 c30 -63 54 -103 62 -103 6 0 20 21 31 47 11 26 22 51 23
55 2 4 -6 8 -18 8 -14 0 -20 -5 -17 -12 2 -7 0 -24 -5 -38 -7 -20 -11 -22 -18
-10 -5 8 -10 25 -10 38 0 17 -6 22 -26 22 -14 0 -24 -3 -22 -7z"/>
<path d="M3385 1505 l0 -55 43 0 c30 0 42 4 42 15 0 11 -8 13 -30 9 -23 -5
-30 -3 -30 10 0 9 8 16 18 16 16 1 16 1 0 11 -26 15 -22 31 7 27 13 -2 25 2
27 7 2 6 -15 11 -37 13 l-40 3 0 -56z"/>
<path d="M3488 1543 c-10 -13 -8 -18 10 -33 12 -10 28 -20 35 -23 6 -2 8 -8 4
-13 -4 -4 -17 -3 -27 4 -26 16 -30 15 -30 -6 0 -14 9 -18 39 -19 63 -3 80 36
25 57 -27 10 -33 30 -9 30 8 0 15 -4 15 -10 0 -5 5 -10 10 -10 6 0 10 8 10 18
0 23 -63 27 -82 5z"/>
<path d="M2810 1308 c3 -3 21 -10 40 -17 19 -6 30 -7 25 -2 -6 5 -23 13 -40
17 -16 4 -28 5 -25 2z"/>
</g>
</svg>
